<svg width="44" height="44" viewBox="0 0 44 44" fill="none" xmlns="http://www.w3.org/2000/svg">
<path fill-rule="evenodd" clip-rule="evenodd" d="M37.6381 8.30504C37.881 8.04439 38.0132 7.69964 38.0069 7.34342C38.0007 6.9872 37.8564 6.64733 37.6044 6.3954C37.3525 6.14348 37.0126 5.99918 36.6564 5.99289C36.3002 5.9866 35.9554 6.11883 35.6948 6.36171L6.36146 35.695C6.22637 35.8209 6.11801 35.9727 6.04286 36.1414C5.96771 36.3101 5.9273 36.4921 5.92404 36.6768C5.92078 36.8614 5.95475 37.0448 6.0239 37.216C6.09306 37.3872 6.19599 37.5427 6.32656 37.6733C6.45712 37.8038 6.61265 37.9068 6.78386 37.9759C6.95508 38.0451 7.13846 38.0791 7.32308 38.0758C7.50771 38.0725 7.68978 38.0321 7.85845 37.957C8.02711 37.8818 8.17891 37.7735 8.30479 37.6384L13.5243 32.4189C16.0305 33.5995 18.9143 34.375 21.9998 34.375C26.9205 34.375 31.3315 32.4005 34.5031 29.9659C36.0926 28.7467 37.4053 27.3864 38.333 26.0499C39.235 24.75 39.8748 23.3255 39.8748 22C39.8748 20.6745 39.2331 19.25 38.333 17.9502C37.4053 16.6137 36.0926 15.2552 34.505 14.0342C34.0234 13.6639 33.515 13.3076 32.9796 12.9654L37.6381 8.30504ZM30.9831 14.9619L27.7363 18.2087C28.6117 19.5308 29.0031 21.1148 28.8444 22.6924C28.6856 24.2701 27.9865 25.7443 26.8653 26.8655C25.7441 27.9867 24.2698 28.6859 22.6922 28.8446C21.1145 29.0034 19.5305 28.6119 18.2085 27.7365L15.6106 30.3325C17.6374 31.1703 19.8068 31.6091 21.9998 31.625C26.1926 31.625 30.0298 29.9329 32.8293 27.7842C34.2263 26.7117 35.33 25.5512 36.0743 24.4824C36.8425 23.375 37.1248 22.5079 37.1248 22C37.1248 21.4922 36.8425 20.625 36.0743 19.5177C35.33 18.4489 34.2263 17.2884 32.8293 16.2159C32.2548 15.7747 31.6407 15.3567 30.9831 14.9619ZM20.2196 25.7235C20.9894 26.0912 21.8542 26.2111 22.6949 26.0669C23.5356 25.9226 24.311 25.5213 24.9142 24.9181C25.5174 24.3149 25.9187 23.5396 26.0629 22.6988C26.2072 21.8581 26.0872 20.9933 25.7196 20.2235L20.2196 25.7235Z" fill="black"/>
<path d="M22 9.625C23.892 9.625 25.7107 9.91833 27.4102 10.4152C27.4846 10.4374 27.5519 10.4786 27.6054 10.5349C27.659 10.5911 27.6969 10.6604 27.7154 10.7358C27.734 10.8112 27.7324 10.8901 27.7111 10.9648C27.6897 11.0394 27.6491 11.1072 27.5935 11.1613L26.0828 12.6738C26.0272 12.7301 25.9579 12.7709 25.8818 12.7925C25.8056 12.814 25.7252 12.8154 25.6483 12.7967C24.4517 12.5208 23.228 12.3794 22 12.375C17.8072 12.375 13.97 14.0672 11.1705 16.2158C9.7735 17.2883 8.66983 18.4488 7.9255 19.5177C7.15733 20.625 6.875 21.4922 6.875 22C6.875 22.5078 7.15733 23.375 7.9255 24.4823C8.5745 25.4173 9.4985 26.4202 10.6535 27.3735C10.8662 27.5477 10.8863 27.8685 10.6902 28.0647L9.39217 29.3645C9.31267 29.4451 9.20575 29.4929 9.09264 29.4984C8.97954 29.5038 8.86853 29.4665 8.78167 29.3938C7.60102 28.4208 6.55373 27.2965 5.66683 26.0498C4.76667 24.75 4.125 23.3255 4.125 22C4.125 20.6745 4.76667 19.25 5.66683 17.9502C6.5945 16.6137 7.90717 15.2552 9.49483 14.0342C12.6683 11.5995 17.0793 9.625 22 9.625Z" fill="black"/>
<path d="M21.9999 15.125C22.2174 15.125 22.4319 15.1348 22.6434 15.1543C23.0045 15.1892 23.1347 15.62 22.8799 15.8767L20.656 18.0987C20.0641 18.3039 19.5265 18.6406 19.0835 19.0836C18.6405 19.5266 18.3038 20.0643 18.0985 20.6562L15.8765 22.88C15.6199 23.1367 15.189 23.0047 15.1542 22.6435C15.0646 21.6905 15.175 20.7294 15.4783 19.8215C15.7816 18.9137 16.2711 18.0792 16.9155 17.3714C17.5599 16.6637 18.345 16.0983 19.2205 15.7115C20.0961 15.3246 21.0427 15.1249 21.9999 15.125Z" fill="black"/>
</svg>
