<svg width="44" height="44" viewBox="0 0 44 44" fill="none" xmlns="http://www.w3.org/2000/svg">
<path fill-rule="evenodd" clip-rule="evenodd" d="M15.125 22C15.125 20.1766 15.8493 18.428 17.1386 17.1386C18.428 15.8493 20.1766 15.125 22 15.125C23.8234 15.125 25.572 15.8493 26.8614 17.1386C28.1507 18.428 28.875 20.1766 28.875 22C28.875 23.8234 28.1507 25.572 26.8614 26.8614C25.572 28.1507 23.8234 28.875 22 28.875C20.1766 28.875 18.428 28.1507 17.1386 26.8614C15.8493 25.572 15.125 23.8234 15.125 22ZM22 17.875C20.906 17.875 19.8568 18.3096 19.0832 19.0832C18.3096 19.8568 17.875 20.906 17.875 22C17.875 23.094 18.3096 24.1432 19.0832 24.9168C19.8568 25.6904 20.906 26.125 22 26.125C23.094 26.125 24.1432 25.6904 24.9168 24.9168C25.6904 24.1432 26.125 23.094 26.125 22C26.125 20.906 25.6904 19.8568 24.9168 19.0832C24.1432 18.3096 23.094 17.875 22 17.875Z" fill="black"/>
<path fill-rule="evenodd" clip-rule="evenodd" d="M7.9255 19.5177C7.15733 20.625 6.875 21.4922 6.875 22C6.875 22.5078 7.15733 23.375 7.9255 24.4823C8.66983 25.5512 9.7735 26.7117 11.1705 27.7842C13.97 29.9328 17.8072 31.625 22 31.625C26.1928 31.625 30.03 29.9328 32.8295 27.7842C34.2265 26.7117 35.3302 25.5512 36.0745 24.4823C36.8427 23.375 37.125 22.5078 37.125 22C37.125 21.4922 36.8427 20.625 36.0745 19.5177C35.3302 18.4488 34.2265 17.2883 32.8295 16.2158C30.03 14.0672 26.1928 12.375 22 12.375C17.8072 12.375 13.97 14.0672 11.1705 16.2158C9.7735 17.2883 8.66983 18.4488 7.9255 19.5177ZM9.49483 14.0342C12.6683 11.5995 17.0793 9.625 22 9.625C26.9207 9.625 31.3317 11.5995 34.5033 14.0342C36.0928 15.2533 37.4055 16.6137 38.3332 17.9502C39.2352 19.25 39.875 20.6745 39.875 22C39.875 23.3255 39.2333 24.75 38.3332 26.0498C37.4055 27.3863 36.0928 28.7448 34.5052 29.9658C31.3335 32.4005 26.9207 34.375 22 34.375C17.0793 34.375 12.6683 32.4005 9.49667 29.9658C7.90717 28.7467 6.5945 27.3863 5.66683 26.0498C4.76667 24.75 4.125 23.3255 4.125 22C4.125 20.6745 4.76667 19.25 5.66683 17.9502C6.5945 16.6137 7.90717 15.2552 9.49483 14.0342Z" fill="black"/>
</svg>
