<svg width="48" height="48" viewBox="0 0 48 48" fill="none" xmlns="http://www.w3.org/2000/svg">
<path d="M29.89 2.5C27.156 2.5 24.95 2.5 23.216 2.734C21.416 2.974 19.9 3.494 18.696 4.696C17.648 5.746 17.116 7.036 16.838 8.552C16.568 10.026 16.516 11.828 16.504 13.992C16.5019 14.3898 16.6579 14.7722 16.9377 15.055C17.2175 15.3378 17.5982 15.4979 17.9961 15.5C18.3939 15.5021 18.7762 15.3461 19.0591 15.0663C19.3419 14.7865 19.5019 14.4058 19.504 14.008C19.516 11.822 19.5721 10.272 19.788 9.094C19.998 7.962 20.3321 7.304 20.8181 6.818C21.3721 6.264 22.15 5.904 23.618 5.706C25.128 5.504 27.13 5.5 30 5.5H32C34.872 5.5 36.874 5.504 38.384 5.706C39.852 5.904 40.628 6.266 41.184 6.818C41.736 7.372 42.096 8.148 42.294 9.618C42.498 11.126 42.5 13.13 42.5 16V32C42.5 34.87 42.498 36.872 42.294 38.384C42.096 39.852 41.736 40.628 41.182 41.182C40.628 41.736 39.852 42.096 38.384 42.294C36.874 42.496 34.872 42.5 32 42.5H30C27.13 42.5 25.128 42.496 23.616 42.294C22.15 42.096 21.3721 41.734 20.8181 41.182C20.3321 40.694 19.998 40.038 19.788 38.906C19.5721 37.728 19.516 36.178 19.504 33.992C19.503 33.795 19.4632 33.6002 19.3868 33.4186C19.3105 33.237 19.1991 33.0722 19.0591 32.9337C18.919 32.7951 18.7531 32.6855 18.5707 32.6111C18.3883 32.5367 18.193 32.4989 17.9961 32.5C17.7991 32.5011 17.6042 32.5409 17.4226 32.6172C17.241 32.6936 17.0763 32.805 16.9377 32.945C16.7992 33.085 16.6896 33.251 16.6152 33.4334C16.5408 33.6158 16.503 33.811 16.504 34.008C16.516 36.172 16.568 37.974 16.838 39.448C17.118 40.964 17.648 42.254 18.698 43.304C19.9 44.508 21.4181 45.024 23.2181 45.268C24.9501 45.5 27.156 45.5 29.89 45.5H32.11C34.846 45.5 37.05 45.5 38.784 45.268C40.584 45.024 42.1 44.508 43.304 43.304C44.508 42.1 45.024 40.584 45.268 38.784C45.5 37.05 45.5 34.844 45.5 32.11V15.89C45.5 13.156 45.5 10.95 45.268 9.216C45.026 7.416 44.508 5.9 43.304 4.696C42.1 3.492 40.584 2.976 38.784 2.734C37.05 2.5 34.844 2.5 32.11 2.5H29.89Z" fill="black"/>
<path d="M30 22.5002C30.3978 22.5002 30.7794 22.6583 31.0607 22.9396C31.342 23.2209 31.5 23.6024 31.5 24.0002C31.5 24.3981 31.342 24.7796 31.0607 25.0609C30.7794 25.3422 30.3978 25.5002 30 25.5002H8.05402L11.976 28.8602C12.2784 29.1191 12.4655 29.4874 12.4963 29.8843C12.527 30.2811 12.3989 30.6739 12.14 30.9762C11.8812 31.2786 11.5128 31.4657 11.116 31.4965C10.7192 31.5272 10.3264 31.3991 10.024 31.1402L3.02402 25.1402C2.85935 24.9994 2.72714 24.8246 2.63649 24.6278C2.54584 24.431 2.4989 24.2169 2.4989 24.0002C2.4989 23.7836 2.54584 23.5695 2.63649 23.3727C2.72714 23.1759 2.85935 23.0011 3.02402 22.8602L10.024 16.8602C10.1737 16.7321 10.3472 16.6346 10.5346 16.5735C10.7219 16.5124 10.9195 16.4888 11.116 16.504C11.3125 16.5192 11.504 16.573 11.6797 16.6623C11.8554 16.7515 12.0118 16.8745 12.14 17.0242C12.2682 17.1739 12.3656 17.3474 12.4267 17.5348C12.4879 17.7222 12.5115 17.9197 12.4963 18.1162C12.481 18.3127 12.4272 18.5043 12.338 18.68C12.2487 18.8557 12.1257 19.0121 11.976 19.1402L8.05602 22.5002H30Z" fill="black"/>
</svg>
