<svg width="48" height="48" viewBox="0 0 48 48" fill="none" xmlns="http://www.w3.org/2000/svg">
<path d="M36.125 5C36.4897 5 36.8398 5.14448 37.0977 5.40234C37.3555 5.66021 37.5 6.01033 37.5 6.375V21.5H34.75V7.75H12.75V40.75H21V43.5H11.375C11.0103 43.5 10.6602 43.3555 10.4023 43.0977C10.1445 42.8398 10 42.4897 10 42.125V6.375C10 6.01033 10.1445 5.66021 10.4023 5.40234C10.6602 5.14448 11.0103 5 11.375 5H36.125ZM27.8545 23.25C31.8315 23.25 34.6067 25.2458 36.3643 27.1973C37.321 28.2678 38.1234 29.467 38.748 30.7598L38.8633 31.0156L38.9023 31.1094L38.9062 31.1152V31.1182C38.9771 31.2949 38.9771 31.4922 38.9062 31.6689L38.9053 31.6709V31.6719L38.9023 31.6777C38.8535 31.7953 38.8019 31.912 38.748 32.0273C38.1235 33.3207 37.3212 34.5208 36.3643 35.5918C34.6082 37.5418 31.8314 39.5371 27.8545 39.5371C23.8777 39.537 21.1032 37.5428 19.3457 35.5898C18.3889 34.5193 17.5866 33.3201 16.9619 32.0273L16.8457 31.7715L16.8076 31.6777L16.8027 31.6719V31.6689C16.732 31.4923 16.7319 31.2948 16.8027 31.1182L17.4902 31.3936L16.8018 31.1172H16.8047V31.1152L16.8076 31.1094C16.8564 30.9918 16.9081 30.8751 16.9619 30.7598C17.5865 29.467 18.3889 28.2677 19.3457 27.1973C21.1017 25.2459 23.8778 23.2501 27.8545 23.25ZM27.8545 24.7305C24.4285 24.7306 22.0212 26.4365 20.4473 28.1865C19.5869 29.1498 18.8648 30.2282 18.3018 31.3906C18.3013 31.3916 18.3003 31.3926 18.2998 31.3936L18.3018 31.3965C18.8648 32.5589 19.5869 33.6373 20.4473 34.6006C22.0226 36.3507 24.4284 38.0565 27.8545 38.0566C31.2808 38.0566 33.6887 36.3507 35.2627 34.6006C36.123 33.6373 36.8452 32.5589 37.4082 31.3965L37.4092 31.3936L37.4082 31.3906C36.8452 30.2282 36.123 29.1498 35.2627 28.1865C33.6873 26.4364 31.2808 24.7305 27.8545 24.7305ZM30.0762 31.3936C30.0761 30.8047 29.8421 30.2397 29.4258 29.8232C29.0093 29.4067 28.4435 29.1729 27.8545 29.1729C27.2656 29.1729 26.7006 29.4068 26.2842 29.8232C25.8678 30.2397 25.6338 30.8046 25.6338 31.3936C25.6338 31.9825 25.8678 32.5474 26.2842 32.9639C26.7006 33.3803 27.2656 33.6142 27.8545 33.6143C28.4435 33.6143 29.0093 33.3804 29.4258 32.9639C29.8421 32.5474 30.0762 31.9824 30.0762 31.3936ZM26.5 21.5H15.5V18.75H26.5V21.5ZM32 16H15.5V13.25H32V16ZM31.5566 31.3936C31.5566 32.3751 31.1666 33.3166 30.4727 34.0107C29.7785 34.7049 28.8362 35.0957 27.8545 35.0957C26.8729 35.0956 25.9314 34.7049 25.2373 34.0107C24.5432 33.3166 24.1533 32.3752 24.1533 31.3936C24.1533 30.4119 24.5432 29.4705 25.2373 28.7764C25.9314 28.0822 26.8729 27.6925 27.8545 27.6924C28.8362 27.6924 29.7785 28.0822 30.4727 28.7764C31.1667 29.4705 31.5566 30.412 31.5566 31.3936Z" fill="black"/>
</svg>
